<?xml version="1.0" encoding="utf-8"?>
<!-- Generator: Adobe Illustrator 16.0.0, SVG Export Plug-In . SVG Version: 6.00 Build 0)  -->
<!DOCTYPE svg PUBLIC "-//W3C//DTD SVG 1.1//EN" "http://www.w3.org/Graphics/SVG/1.1/DTD/svg11.dtd">
<svg version="1.1" id="Layer_1" xmlns="http://www.w3.org/2000/svg" xmlns:xlink="http://www.w3.org/1999/xlink" x="0px" y="0px"
	 width="530px" height="207.087px" viewBox="0 0 530 207.087" enable-background="new 0 0 530 207.087" xml:space="preserve">
<g>
	<g>
		<path fill="#00043B" d="M116.058,178.328l16.028-26.745c15.527,10.629,30.719,15.939,45.581,15.939
			c9.517,0,16.987-1.621,22.414-4.863c5.424-3.242,8.14-8.104,8.14-14.588c0-3.96-0.876-7.248-2.63-9.861
			c-1.753-2.608-4.844-5.133-9.266-7.564c-4.426-2.431-11.063-5.538-19.911-9.32l-5.76-2.431
			c-10.688-4.5-19.284-8.822-25.796-12.968c-6.512-4.141-11.688-9.455-15.527-15.939c-3.843-6.483-5.761-14.677-5.761-24.584
			c0-10.983,2.92-20.127,8.766-27.421c5.843-7.294,13.356-12.65,22.54-16.074c9.181-3.419,18.948-5.133,29.302-5.133
			c9.349,0,18.991,1.667,28.927,4.998c9.932,3.335,19.409,8.239,28.426,14.724l-16.182,26.475
			c-7.967-5.222-15.019-9.004-21.158-11.347c-6.14-2.338-12.776-3.512-19.91-3.512c-7.968,0-13.982,1.443-18.048,4.322
			c-4.066,2.884-6.097,6.754-6.097,11.617c0,3.064,0.829,5.809,2.488,8.239c1.659,2.432,4.646,4.863,8.962,7.295
			c4.315,2.431,10.542,5.268,18.674,8.51l5.479,2.161c10.62,4.322,19.209,8.375,25.768,12.157
			c6.555,3.782,12.072,9.185,16.557,16.209c4.481,7.024,6.724,16.12,6.724,27.285c0,11.71-2.841,21.57-8.516,29.582
			c-5.678,8.017-13.398,14.006-23.166,17.966c-9.768,3.959-20.83,5.943-33.184,5.943C154.876,199.4,133.589,192.376,116.058,178.328
			z"/>
		<path fill="#00043B" d="M352.1,79.316c7.428,6.214,11.145,16.438,11.145,30.662v85.64H334.42l-2.731-9.455
			c-6.198,4.862-12.358,8.286-18.471,10.266c-6.116,1.979-12.525,2.972-19.226,2.972c-7.035,0-13.234-1.443-18.595-4.322
			c-5.361-2.879-9.51-6.89-12.44-12.022c-2.935-5.133-4.398-11.029-4.398-17.695c0-14.225,6.531-25.077,19.602-32.554
			c13.069-7.471,30.158-11.658,51.274-12.562v-2.972c0-5.04-0.462-9.004-1.386-11.887c-0.923-2.879-2.555-4.998-4.903-6.349
			c-2.348-1.352-5.615-2.026-9.802-2.026c-10.559,0-22.544,4.593-35.951,13.777l-13.074-22.152
			c9.017-6.302,17.821-10.983,26.423-14.048c8.597-3.061,17.988-4.593,28.175-4.593C333.605,69.996,344.669,73.103,352.1,79.316z
			 M296.924,169.818c2.199,2.072,5.416,3.106,9.649,3.106c6.942,0,14.565-2.431,22.861-7.294v-23.503
			c-12.362,0.722-21.421,2.794-27.178,6.213c-5.76,3.424-8.636,7.564-8.636,12.428C293.621,164.731,294.721,167.75,296.924,169.818z
			"/>
		<path fill="#00043B" d="M435.022,43.521c-2.774,3.242-4.159,7.928-4.159,14.049v16.479h28.801l-3.757,28.907h-25.044v92.663
			h-33.811v-92.663h-16.529V74.048h16.529V58.379c0-9.726,1.754-18.412,5.26-26.069c3.506-7.653,8.641-13.643,15.402-17.966
			c6.762-4.322,14.983-6.483,24.669-6.483c4.508,0,8.641,0.363,12.396,1.081c3.757,0.722,7.639,1.802,11.646,3.241l-9.079,28.907
			c-3.197-1.621-6.895-2.432-11.098-2.432C441.538,38.658,437.797,40.279,435.022,43.521z M482.956,52.841
			c-3.342-2.068-6.011-4.816-8.015-8.239c-2.004-3.419-3.005-7.201-3.005-11.347c0-4.141,1.001-7.97,3.005-11.481
			s4.673-6.303,8.015-8.375c3.338-2.068,6.926-3.106,10.769-3.106c4.007,0,7.721,1.038,11.145,3.106
			c3.421,2.072,6.137,4.863,8.14,8.375c2.004,3.512,3.006,7.341,3.006,11.481c0,4.146-1.002,7.928-3.006,11.347
			c-2.003,3.423-4.719,6.171-8.14,8.239c-3.424,2.073-7.138,3.107-11.145,3.107C489.882,55.948,486.294,54.914,482.956,52.841z
			 M477.446,195.618V74.858l33.81-3.512v124.271H477.446z"/>
	</g>
	<g>
		<path fill="#F61D63" d="M161.323,89.345l-60.266-34.258c-3.833-2.179-7.842-2.624-11.684-1.567
			c-3.698,1.144-7.148,3.647-9.241,7.326c-2.177,3.834-2.628,7.841-1.566,11.687c1.144,3.693,3.646,7.15,7.321,9.241l60.267,34.256
			c1.994,1.136,4.163,0.537,6.037-0.628c2.295-1.535,4.914-4.712,7.529-9.313s4.006-8.479,4.15-11.232
			C164.154,92.579,163.317,90.479,161.323,89.345z"/>
		<path fill="#F61D63" d="M96.383,157.6l-59.779-35.097c-3.805-2.232-7.805-2.734-11.661-1.732
			c-3.714,1.093-7.198,3.548-9.343,7.197c-2.229,3.804-2.738,7.803-1.73,11.663c1.093,3.709,3.546,7.201,7.193,9.343l59.779,35.096
			c1.979,1.165,4.155,0.597,6.046-0.543c2.314-1.503,4.979-4.644,7.659-9.207c2.679-4.564,4.125-8.422,4.307-11.174
			C99.168,160.873,98.361,158.763,96.383,157.6z"/>
		<path fill="#F61D63" d="M74.292,128.233c1.979,1.165,4.155,0.596,6.046-0.543c2.314-1.502,4.979-4.643,7.658-9.208
			c2.679-4.563,4.125-8.42,4.308-11.172c0.314-2.273-0.491-4.384-2.471-5.547L30.054,66.667c-3.804-2.231-7.805-2.734-11.661-1.731
			c-3.714,1.093-7.199,3.547-9.343,7.196c-2.229,3.804-2.738,7.804-1.731,11.663c1.093,3.709,3.547,7.201,7.193,9.344
			L74.292,128.233z"/>
	</g>
</g>
</svg>
