<?xml version="1.0" encoding="utf-8"?>
<!-- Generator: Adobe Illustrator 16.0.0, SVG Export Plug-In . SVG Version: 6.00 Build 0)  -->
<!DOCTYPE svg PUBLIC "-//W3C//DTD SVG 1.1//EN" "http://www.w3.org/Graphics/SVG/1.1/DTD/svg11.dtd">
<svg version="1.1" id="Layer_1" xmlns="http://www.w3.org/2000/svg" xmlns:xlink="http://www.w3.org/1999/xlink" x="0px" y="0px"
	 width="374.365px" height="384px" viewBox="0 0 374.365 384" enable-background="new 0 0 374.365 384" xml:space="preserve">
<g>
	<g>
		<path fill="#00043B" d="M219.869,228.645c-3.342-2.068-6.011-4.816-8.015-8.24c-2.003-3.418-3.005-7.201-3.005-11.346
			c0-4.141,1.002-7.971,3.005-11.482c2.004-3.512,4.673-6.303,8.015-8.375c3.338-2.068,6.926-3.105,10.769-3.105
			c4.008,0,7.721,1.037,11.146,3.105c3.42,2.072,6.136,4.863,8.139,8.375c2.004,3.512,3.006,7.342,3.006,11.482
			c0,4.145-1.002,7.928-3.006,11.346c-2.003,3.424-4.719,6.172-8.139,8.24c-3.425,2.072-7.138,3.107-11.146,3.107
			C226.795,231.752,223.207,230.717,219.869,228.645z M214.359,371.422v-120.76l33.81-3.512v124.271H214.359z"/>
	</g>
	<g>
		<path fill="#00043B" d="M118.841,174.131l16.028-26.744c15.527,10.629,30.719,15.939,45.581,15.939
			c9.517,0,16.987-1.621,22.414-4.863c5.424-3.242,8.14-8.105,8.14-14.588c0-3.961-0.876-7.248-2.63-9.861
			c-1.753-2.609-4.844-5.133-9.266-7.564c-4.426-2.432-11.063-5.539-19.911-9.32l-5.76-2.432
			c-10.688-4.5-19.284-8.822-25.796-12.967c-6.512-4.141-11.688-9.455-15.527-15.939c-3.843-6.484-5.761-14.678-5.761-24.584
			c0-10.984,2.92-20.127,8.766-27.422c5.843-7.293,13.356-12.65,22.54-16.074c9.181-3.418,18.948-5.133,29.302-5.133
			c9.349,0,18.991,1.668,28.927,4.998c9.932,3.336,19.409,8.24,28.426,14.725l-16.182,26.475
			c-7.967-5.223-15.019-9.004-21.158-11.348c-6.14-2.338-12.776-3.512-19.91-3.512c-7.968,0-13.982,1.443-18.048,4.322
			c-4.066,2.885-6.097,6.754-6.097,11.617c0,3.064,0.829,5.809,2.488,8.24s4.646,4.863,8.962,7.295
			c4.315,2.43,10.542,5.268,18.674,8.51l5.479,2.16c10.62,4.322,19.209,8.375,25.768,12.158c6.555,3.781,12.072,9.184,16.557,16.209
			c4.481,7.023,6.724,16.119,6.724,27.285c0,11.709-2.841,21.57-8.516,29.582c-5.678,8.016-13.398,14.006-23.166,17.965
			s-20.83,5.943-33.184,5.943C157.659,195.203,136.372,188.18,118.841,174.131z"/>
		<path fill="#00043B" d="M354.883,75.119c7.428,6.215,11.145,16.438,11.145,30.662v85.641h-28.824l-2.731-9.455
			c-6.198,4.861-12.358,8.285-18.471,10.266c-6.116,1.979-12.525,2.971-19.226,2.971c-7.035,0-13.234-1.443-18.595-4.322
			c-5.361-2.879-9.51-6.889-12.44-12.021c-2.935-5.133-4.398-11.029-4.398-17.695c0-14.225,6.531-25.078,19.602-32.555
			c13.069-7.471,30.158-11.658,51.274-12.561v-2.973c0-5.039-0.462-9.004-1.386-11.887c-0.923-2.879-2.555-4.998-4.903-6.348
			c-2.348-1.352-5.615-2.027-9.802-2.027c-10.559,0-22.544,4.594-35.951,13.777l-13.074-22.152
			c9.017-6.301,17.821-10.982,26.423-14.047c8.597-3.061,17.988-4.594,28.175-4.594C336.389,65.799,347.452,68.906,354.883,75.119z
			 M299.707,165.621c2.199,2.072,5.416,3.107,9.649,3.107c6.942,0,14.565-2.432,22.861-7.295v-23.502
			c-12.362,0.721-21.421,2.793-27.178,6.213c-5.76,3.424-8.636,7.564-8.636,12.428C296.404,160.535,297.504,163.553,299.707,165.621
			z"/>
		<path fill="#00043B" d="M172.083,219.055c-2.771,3.422-4.155,8.285-4.155,14.588v16.209h29.302l-3.537,28.906h-25.765v92.664
			h-33.811v-92.664h-16.529v-28.906h16.529v-15.398c0-9.727,1.754-18.459,5.26-26.205c3.506-7.742,8.641-13.82,15.402-18.236
			c6.762-4.41,14.983-6.619,24.669-6.619c5.674,0,10.683,0.453,15.026,1.352c4.34,0.904,8.766,2.344,13.273,4.322l-8.315,28.637
			c-3.028-1.439-5.76-2.432-8.194-2.973c-2.434-0.539-5.079-0.809-7.936-0.809C178.595,213.922,174.854,215.635,172.083,219.055z"/>
	</g>
	<g>
		<path fill="#F61D63" d="M164.106,85.171l-60.266-34.258c-3.833-2.179-7.842-2.624-11.684-1.567
			c-3.698,1.144-7.148,3.647-9.241,7.326c-2.177,3.834-2.628,7.841-1.566,11.687c1.144,3.693,3.646,7.15,7.321,9.241l60.267,34.256
			c1.994,1.136,4.163,0.537,6.037-0.628c2.295-1.535,4.914-4.712,7.529-9.313s4.006-8.479,4.15-11.232
			C166.938,88.405,166.101,86.306,164.106,85.171z"/>
		<path fill="#F61D63" d="M99.166,153.426l-59.779-35.097c-3.805-2.232-7.805-2.734-11.661-1.732
			c-3.714,1.093-7.198,3.548-9.343,7.197c-2.229,3.804-2.738,7.803-1.73,11.663c1.093,3.709,3.546,7.201,7.193,9.343l59.779,35.096
			c1.979,1.165,4.155,0.597,6.046-0.543c2.314-1.503,4.979-4.644,7.659-9.207c2.679-4.564,4.125-8.422,4.307-11.174
			C101.951,156.699,101.145,154.589,99.166,153.426z"/>
		<path fill="#F61D63" d="M77.075,124.06c1.979,1.165,4.155,0.596,6.046-0.543c2.314-1.502,4.979-4.643,7.658-9.208
			c2.679-4.563,4.125-8.42,4.308-11.172c0.314-2.273-0.491-4.384-2.471-5.547L32.837,62.493c-3.804-2.231-7.805-2.734-11.661-1.731
			c-3.714,1.093-7.199,3.547-9.343,7.196c-2.229,3.804-2.738,7.804-1.731,11.663c1.093,3.709,3.547,7.201,7.193,9.344L77.075,124.06
			z"/>
	</g>
</g>
</svg>
